<?xml version="1.0" encoding="utf-8"?>
<!-- Generator: Adobe Illustrator 17.0.0, SVG Export Plug-In . SVG Version: 6.00 Build 0)  -->
<!DOCTYPE svg PUBLIC "-//W3C//DTD SVG 1.1//EN" "http://www.w3.org/Graphics/SVG/1.1/DTD/svg11.dtd">
<svg version="1.1" id="Layer_1" xmlns="http://www.w3.org/2000/svg" xmlns:xlink="http://www.w3.org/1999/xlink" x="0px" y="0px"
	 width="500px" height="500px" viewBox="0 0 500 500" enable-background="new 0 0 500 500" xml:space="preserve">
<rect x="171.836" y="296.654" opacity="0.5" fill="#3D3C3E" enable-background="new    " width="38.196" height="40.31"/>
<path opacity="0.5" fill="#3D3C3E" enable-background="new    " d="M460.092,426.985c-0.739-2.766,0.507-4.898,2.397-6.038
	c-1.37-2.69-2.385-5.662-3.009-8.612c-2.183-4.361-4.088-8.847-5.547-13.486c-4.77-4.448-9.616-9.075-8.18-14.822
	c-4.563-4.382-6.93-10.66-7.082-17.012c-3.349-1.925-5.926-4.675-7.754-7.867c-4.052-4.305-7.386-9.137-10.576-14.378
	c-9.149-15.031-16.961-31.522-20.747-48.784c-0.46-2.098,0.179-3.833,1.339-5.055c-5.838-10.474-10.805-21.421-16.273-32.105
	c-0.263-0.514-0.435-1.023-0.542-1.522c-1.876-2.392-3.879-4.691-6.081-6.843c-0.226-0.221-0.418-0.449-0.596-0.679
	c-1.142,1-2.162,2.031-2.98,3.092c-11.126-10.087-25.84-16.277-42.034-16.277c-16.125,0-30.78,6.141-41.887,16.145
	c-11.405-11.881-27.418-19.306-45.185-19.306c-15.488,0-29.638,5.646-40.578,14.954c-10.391-7.656-23.188-12.229-37.083-12.229
	c-13.689,0-26.325,4.441-36.632,11.891c-3.629-3.837-7.757-7.173-12.255-9.973c-1.954,12.161-9.099,24.263-14.607,35.108
	c-3.354,6.604-6.969,13.193-9.528,20.159c-2.638,7.181-4.726,14.583-7.102,21.856c-4.485,13.725-7.944,28.178-14.327,41.182
	c-3.115,6.346-7.507,12.074-9.98,18.716c-2.403,6.456-4.43,13.002-7.419,19.227c-1.281,2.669-3.659,3.289-5.806,2.647
	c-2.753,8.137-9.563,16.499-16.175,20.064c0.961,4.642,4.848,17.438,3.334,21.908c0.784,7.029,9.916,7.329,11.366,14.289
	c0.186-0.005,0.363-0.029,0.554-0.029c2.353,0,4.465,0.363,6.45,0.882c0.926,0.181,1.833,0.426,2.725,0.725
	c0.274-0.005,0.534-0.034,0.814-0.029c13.778,0.172,26.844,4.46,40.451,5.127c12.498,0.613,24.992,0.137,37.5,0.132
	c29.315-0.01,58.634-0.005,87.939-0.539c43.842-0.804,88.307-2.475,132.036,2.529c10.455-5.347,24.791-5.068,35.539-5.671
	c6.337-0.353,12.552,2.612,18.625,3.568c3.436,0.539,9.675-4.47,12.601-5.813c4.094-1.875,9.606-1.293,15.286-0.19
	c0.884-1.269,2.354-2.123,4.418-2.039c3.606,0.147,7.128-0.931,10.66-1.95c0.101-0.501,0.199-1.003,0.337-1.502
	c1.485-5.393,4.824-9.795,9.119-12.825C462.173,432.851,460.901,430.009,460.092,426.985z"/>
<g opacity="0.5" enable-background="new    ">
	<rect x="239.913" y="167.493" fill="#3D3C3E" width="38.196" height="40.31"/>
	<rect x="278.108" y="127.183" fill="#3D3C3E" width="38.196" height="40.31"/>
</g>
<g opacity="0.5" enable-background="new    ">
	<rect x="31.861" y="417.314" fill="#3D3C3E" width="38.196" height="40.31"/>
	<rect x="70.056" y="377.004" fill="#3D3C3E" width="38.196" height="40.31"/>
</g>
<g opacity="0.5" enable-background="new    ">
	<rect x="320.177" y="404.433" fill="#3D3C3E" width="38.196" height="40.31"/>
</g>
<g opacity="0.5" enable-background="new    ">
	<rect x="297.159" y="294.345" fill="#3D3C3E" width="38.196" height="40.31"/>
	<rect x="335.354" y="254.035" fill="#3D3C3E" width="38.196" height="40.31"/>
</g>
<path fill="none" stroke="#3D3C3E" stroke-width="20" stroke-miterlimit="10" d="M295,56.994l174.14,380.281
	c0,9.614-9.861,17.408-22.024,17.408H52.884c-12.164,0-22.024-7.794-22.024-17.408L206,56.994"/>
<rect x="195.05" y="86.873" opacity="0.5" fill="#3D3C3E" enable-background="new    " width="38.196" height="40.31"/>
<rect x="167.501" y="41.982" fill="#3D3C3E" width="165.5" height="20"/>
</svg>
